<?xml version="1.0" encoding="UTF-8" standalone="no"?>
<!-- Created with Inkscape (http://www.inkscape.org/) -->

<svg
   width="135.87505mm"
   height="37.715469mm"
   viewBox="0 0 135.87506 37.715469"
   version="1.1"
   id="svg5"
   inkscape:version="1.2.1 (9c6d41e410, 2022-07-14)"
   sodipodi:docname="logo.svg"
   xmlns:inkscape="http://www.inkscape.org/namespaces/inkscape"
   xmlns:sodipodi="http://sodipodi.sourceforge.net/DTD/sodipodi-0.dtd"
   xmlns="http://www.w3.org/2000/svg"
   xmlns:svg="http://www.w3.org/2000/svg">
  <sodipodi:namedview
     id="namedview7"
     pagecolor="#505050"
     bordercolor="#eeeeee"
     borderopacity="1"
     inkscape:pageshadow="0"
     inkscape:pageopacity="0"
     inkscape:pagecheckerboard="0"
     inkscape:document-units="mm"
     showgrid="false"
     fit-margin-top="0"
     fit-margin-left="0"
     fit-margin-right="0"
     fit-margin-bottom="0"
     inkscape:zoom="0.7205704"
     inkscape:cx="537.07452"
     inkscape:cy="291.43579"
     inkscape:window-width="1920"
     inkscape:window-height="1017"
     inkscape:window-x="-8"
     inkscape:window-y="-8"
     inkscape:window-maximized="1"
     inkscape:current-layer="layer1"
     inkscape:showpageshadow="2"
     inkscape:deskcolor="#505050" />
  <defs
     id="defs2">
    <clipPath
       clipPathUnits="userSpaceOnUse"
       id="clipPath55">
      <path
         d="M 0,1000 H 1000 V 0 H 0 Z"
         id="path53" />
    </clipPath>
  </defs>
  <g
     inkscape:label="Layer 1"
     inkscape:groupmode="layer"
     id="layer1"
     transform="translate(-16.353543,-63.893136)">
    <path
       fill="#31c088"
       opacity="1"
       stroke="none"
       d="m 54.127457,96.823271 c 0,0 -0.025,0.10326 -0.14255,0.158303 -0.21377,0.2364 -0.30999,0.41776 -0.4062,0.599116 -0.0105,0.0845 -0.05,0.152022 -0.24531,0.247013 -0.17335,0.128473 -0.21994,0.212491 -0.26653,0.29651 10e-6,0 -0.0188,-0.03298 -0.0744,-0.0082 -0.10235,0.105533 -0.14919,0.186246 -0.19603,0.266954 0,0 -0.009,-0.02862 -0.0618,-0.01027 -0.12308,0.122885 -0.19381,0.227425 -0.26454,0.331964 -0.0948,0.09452 -0.18965,0.189039 -0.45021,0.340588 -0.39506,0.22835 -0.62439,0.399673 -0.85371,0.570997 0,0 -0.0877,0.05928 -0.23324,0.06248 -0.45782,0.175675 -0.77013,0.348154 -1.08243,0.520624 0,0 -0.0776,0.0459 -0.21047,0.025 -0.37637,0.0798 -0.61989,0.18053 -0.86342,0.28126 -0.28114,0.057 -0.56228,0.11403 -1.02609,0.0961 -0.92057,0.0795 -1.65847,0.23385 -2.39637,0.38824 -0.55724,0.0651 -1.11448,0.13025 -1.8602,0.12185 -1.18549,0.0487 -2.1825,0.171 -3.17951,0.29326 -5.29491,0.36843 -10.56431,0.0432 -15.77978,-0.84894 -3.1916,-0.54594 -5.48188,-3.393887 -6.10361,-7.148967 -1.16845,-7.057083 -1.12963,-14.103613 0.24309,-21.132523 0.65363,-3.346844 3.29063,-5.905027 6.66093,-6.189824 4.37877,-0.370015 8.7719,-0.57018 13.32142,-0.772697 0.31202,0.04142 0.46146,0.01209 0.61089,-0.01725 0.36642,0.0048 0.73284,0.0096 1.24206,0.133792 1.08495,0.139298 2.02712,0.159115 2.96928,0.178932 0.55768,0.0433 1.11535,0.08659 1.83656,0.229272 0.82199,0.160393 1.48046,0.221406 2.13892,0.282419 0.30356,0.02273 0.60712,0.04548 1.07517,0.168823 0.93515,0.325199 1.70581,0.549796 2.47647,0.774396 0.12773,0.04441 0.25546,0.08882 0.45357,0.268345 0.17353,0.171485 0.27669,0.207844 0.37985,0.244203 0.1183,0.05214 0.23659,0.104269 0.41465,0.289941 0.15539,0.174622 0.251,0.215709 0.34663,0.256796 0.11061,0.08426 0.22122,0.168529 0.38453,0.390441 0.17365,0.226936 0.2946,0.316227 0.41555,0.405519 0.19128,0.208539 0.38255,0.417084 0.61662,0.79098 0.49337,1.184899 0.94396,2.204442 1.39454,3.223982 0.0711,0.383439 0.14223,0.766873 0.14205,1.320263 0.0769,0.818578 0.22503,1.467199 0.3732,2.115822 0.0616,0.557811 0.12328,1.115621 0.11869,1.867271 -0.0568,3.610269 -0.0473,7.026698 -0.0378,10.443124 -0.006,0.413335 -0.0118,0.826674 -0.0832,1.429068 -0.15055,0.921907 -0.23555,1.654752 -0.32055,2.3876 -0.0441,0.387711 -0.0883,0.775421 -0.24324,1.310006 -0.48507,1.103716 -0.85932,2.060561 -1.23358,3.017403 m -13.81122,-4.413979 c 2.91084,-1.209386 4.99503,-3.372771 6.79662,-5.869397 0.63886,-0.88533 0.96514,-1.812749 0.3258,-2.80769 -0.66965,-1.042099 -1.68061,-1.15999 -2.79886,-0.87837 -5.51401,1.388651 -11.11244,2.212805 -16.79012,2.510579 -1.02806,0.05392 -1.917,0.369216 -2.26609,1.468773 -0.33303,1.048955 0.003,1.936219 0.82429,2.594536 4.06683,3.261365 8.50459,4.920214 13.90836,2.981569 m 8.04581,-15.811665 c -0.22082,-0.509463 -0.33988,-1.123014 -0.70744,-1.482381 -0.17148,-0.167651 -0.90627,0.03955 -1.24582,0.276958 -2.71524,1.898509 -4.15222,1.963451 -7.01363,0.21337 -0.61216,-0.374412 -1.22035,-0.828304 -1.86443,-0.08361 -0.69823,0.807291 -0.23161,1.481031 0.31548,2.094941 2.19249,2.460294 8.64966,2.760744 10.51584,-1.019283 m -22.80086,1.658458 c 1.35278,1.390288 2.84882,1.552171 4.20035,0.454515 1.26881,-1.030483 1.55499,-2.530626 0.73847,-3.871024 -0.88894,-1.459264 -2.50133,-2.044517 -3.82016,-1.386609 -1.529,0.762746 -2.11491,2.419074 -1.46684,4.16166 0.0608,0.163399 0.15535,0.314227 0.34818,0.641458 z"
       id="path200"
       style="stroke-width:0.264583" />
    <path
       fill="#34c08a"
       opacity="1"
       stroke="none"
       d="m 64.518817,84.31212 c 0.001,-5.108707 0.007,-10.085226 -0.002,-15.061723 -0.002,-0.931627 0.0964,-1.805506 1.14351,-2.131013 1.24355,-0.386559 2.17233,0.386954 2.18556,1.851383 0.027,2.99448 0.01,5.989359 0.0105,8.984075 1.4e-4,0.474562 3e-5,0.949121 3e-5,1.728774 0.72045,-0.496716 1.23587,-0.86152 1.76059,-1.212419 6.85054,-4.581239 15.71776,-1.712592 18.053986,5.947926 1.430549,4.690766 0.408873,8.953923 -3.222226,12.319213 -3.71585,3.443824 -8.15701,4.169934 -12.75949,2.199607 -4.56209,-1.953034 -6.94664,-5.656837 -7.15934,-10.662511 -0.0542,-1.274898 -0.0103,-2.553962 -0.0115,-3.963312 m 3.34096,3.837613 c 0.15893,4.896649 3.87811,8.573168 8.61747,8.518626 4.64646,-0.05347 8.344492,-3.777499 8.39571,-8.454701 0.05127,-4.682534 -3.58112,-8.501242 -8.20876,-8.629798 -4.772,-0.132569 -8.57144,3.461909 -8.80442,8.565873 z"
       id="path202"
       style="stroke-width:0.264583" />
    <path
       fill="#34bf89"
       opacity="1"
       stroke="none"
       d="m 133.35937,99.094757 c -0.11187,-0.570213 -0.19939,-1.048802 -0.19981,-1.527463 -0.008,-9.430169 -0.014,-18.860364 0.0109,-28.290473 0.002,-0.580549 0.0808,-1.360041 0.44613,-1.687246 0.4054,-0.363085 1.35223,-0.604879 1.75232,-0.369932 0.51495,0.302384 1.00509,1.126649 1.01486,1.734016 0.0801,4.978204 0.0866,9.958816 0.0171,14.937318 -0.0168,1.205054 0.36444,1.476509 1.50076,1.448955 4.82324,-0.11695 7.96387,-2.643754 8.92526,-7.364008 0.22538,-1.106551 0.71239,-1.829023 1.91476,-1.701014 1.27654,0.135911 1.48357,1.050366 1.37028,2.132684 -0.26834,2.563903 -1.46658,4.677481 -3.19065,6.522734 -0.53444,0.572017 -1.14608,1.071906 -1.81781,1.693073 0.7307,0.59289 1.3389,1.074563 1.93436,1.571509 3.11094,2.59626 4.34494,5.983016 4.19597,9.956776 -0.0396,1.057328 -0.61511,1.688851 -1.60966,1.746458 -1.03857,0.06016 -1.6016,-0.620864 -1.72561,-1.625862 -0.0591,-0.478952 -0.0295,-0.96817 -0.0576,-1.451716 -0.26486,-4.551402 -3.30416,-7.686587 -7.8557,-8.108392 -3.55489,-0.329441 -3.55481,-0.329445 -3.55495,3.171452 -8e-5,1.982978 -0.0143,3.966097 0.006,5.948873 0.009,0.851349 -0.11014,1.744492 -1.03343,1.890332 -0.61579,0.09728 -1.31586,-0.338997 -2.04313,-0.628074 m 0.36566,-17.824958 c 0,-3.544462 0,-7.088926 0,-10.633388 -0.0628,0.0011 -0.12564,0.0024 -0.18846,0.0035 0,9.132766 0,18.265534 0,27.398302 0.0628,1.13e-4 0.12564,2.22e-4 0.18846,3.44e-4 0,-5.501392 0,-11.00278 0,-16.768756 m -0.23232,-12.094768 c 0.0295,0.03017 0.055,0.07589 0.09,0.085 0.023,0.006 0.0851,-0.03969 0.0863,-0.06421 0.008,-0.170159 0.004,-0.340836 0.004,-0.511347 -0.0458,-7.94e-4 -0.0916,-0.0016 -0.13735,-0.0021 -0.0222,0.117597 -0.0445,0.235197 -0.043,0.492753 z"
       id="path204"
       style="stroke-width:0.264583" />
    <path
       fill="#35c08a"
       opacity="1"
       stroke="none"
       d="m 128.45453,82.401566 c 0.0578,0.12695 0.11555,0.2539 0.14139,0.516776 0.0133,0.201389 0.0586,0.266852 0.10391,0.33232 0.0628,0.135643 0.1257,0.271281 0.13001,0.540677 -0.0778,1.712815 -0.10889,3.291845 -0.11385,4.870952 -0.009,2.860488 -0.0157,5.721142 0.009,8.58144 0.005,0.559301 0.15719,1.117325 0.24149,1.675935 -0.41563,0.802398 -1.04175,1.189374 -1.94488,0.904043 -0.95513,-0.301758 -1.20104,-1.050117 -1.1993,-1.970709 0.008,-4.00934 0.0777,-8.020876 -0.0289,-12.027511 -0.12441,-4.675014 -4.81859,-7.626408 -9.04965,-5.695756 -2.62102,1.19599 -3.81052,3.39745 -3.79963,6.272069 0.0145,3.83314 0.0481,7.667406 -0.0408,11.498535 -0.0144,0.622907 -0.50001,1.37278 -0.99673,1.794068 -0.29075,0.246602 -1.15444,0.131706 -1.54112,-0.136579 -0.39168,-0.271757 -0.71604,-0.930628 -0.72137,-1.423706 -0.0472,-4.361228 -0.10386,-8.725706 0.0172,-13.084371 0.10441,-3.759178 3.08575,-7.247762 6.94268,-8.448367 3.73815,-1.163641 7.95953,0.164253 10.43137,3.313006 0.43148,0.54963 0.75861,1.181177 1.15311,1.933546 0.0776,0.226649 0.13597,0.29464 0.19439,0.362631 0,0 0.0367,0.02046 0.0339,0.06343 -0.003,0.04297 0.0377,0.127572 0.0377,0.127572 z"
       id="path206"
       style="stroke-width:0.264583" />
    <path
       fill="#34c088"
       opacity="1"
       stroke="none"
       d="m 95.779558,72.672012 c -5.8e-5,8.11106 -5.8e-5,16.090103 -9e-5,24.069146 0,0.308581 0.0046,0.617255 -0.0013,0.925727 -0.02756,1.436604 -0.638263,2.26092 -1.669111,2.25805 -1.057299,-0.0029 -1.682009,-0.813299 -1.682914,-2.235688 -0.0047,-7.361881 -0.0016,-14.723758 -0.0016,-22.085638 -1.6e-5,-2.160072 -0.01005,-4.320183 2.65e-4,-6.480202 0.0068,-1.420759 0.52714,-2.050626 1.654985,-2.057111 1.133392,-0.0065 1.648721,0.583472 1.69292,2.035484 0.03486,1.14508 0.007,2.292075 0.0068,3.570232 z"
       id="path208"
       style="stroke-width:0.264583" />
    <path
       fill="#37c28c"
       opacity="1"
       stroke="none"
       d="m 101.93762,76.821682 c 0.62147,-0.148522 1.46868,-0.615501 1.81224,-0.37197 0.53406,0.378566 1.00782,1.236289 1.0176,1.898147 0.0792,5.361888 0.0443,10.725461 0.0438,16.088522 -1.1e-4,1.142945 0.12407,2.30556 -0.05,3.421529 -0.10589,0.678943 -0.52857,1.485653 -1.06845,1.876593 -0.73785,0.534277 -1.4985,0.08343 -1.93343,-0.827901 0.11352,-0.3796 0.19991,-0.590892 0.19985,-0.802159 -0.002,-7.094254 -0.0125,-14.188508 -0.0216,-21.282761 z"
       id="path210"
       style="stroke-width:0.264583" />
  </g>
</svg>
